<?xml version="1.0" encoding="UTF-8" standalone="no"?>
<!-- Created with Inkscape (http://www.inkscape.org/) -->

<svg
   width="194.435mm"
   height="65.359001mm"
   viewBox="0 0 194.435 65.359001"
   version="1.1"
   id="svg848"
   xmlns="http://www.w3.org/2000/svg"
   xmlns:svg="http://www.w3.org/2000/svg">
  <defs
     id="defs845">
    <clipPath
       id="_clipPath_6ShIeVxEILlwMTyawDyerCTmGYsF0u0v">
      <path
         d="m 222.695,174.886 h 114.61 v 38.526 h -114.61 z"
         fill="#ffffff"
         id="path129" />
    </clipPath>
  </defs>
  <g
     id="layer1">
    <g
       clip-path="url(#_clipPath_6ShIeVxEILlwMTyawDyerCTmGYsF0u0v)"
       id="g134"
       transform="matrix(1.6964892,0,0,1.6964892,-377.79966,-296.69221)"
       style="isolation:isolate;fill:#ffffff;fill-opacity:1">
      <path
         d="m 314.786,176.892 v 0 -1.51 c 0,-0.331 0.167,-0.496 0.501,-0.496 h 21.518 c 0.333,0 0.5,0.165 0.5,0.496 v 1.51 c 0,0.315 -0.06,0.623 -0.179,0.923 l -13.67,34.516 c -0.104,0.28 -0.313,0.421 -0.628,0.421 h -1.786 c -0.263,0 -0.368,-0.141 -0.313,-0.421 l 13.556,-34.937 h -18.998 c -0.334,0 -0.501,-0.168 -0.501,-0.502 z m -24.065,25.036 v 0 c 0,2.688 0.77,4.867 2.31,6.535 1.545,1.662 3.639,2.493 6.285,2.493 2.661,0 4.76,-0.831 6.301,-2.493 1.544,-1.668 2.316,-3.847 2.316,-6.535 0,-2.82 -0.767,-5.048 -2.302,-6.686 -1.534,-1.638 -3.639,-2.456 -6.315,-2.456 -2.681,0 -4.783,0.818 -6.308,2.456 -1.524,1.638 -2.287,3.866 -2.287,6.686 z m -2.601,-0.053 v 0 -26.493 c 0,-0.331 0.167,-0.496 0.501,-0.496 h 1.599 c 0.334,0 0.501,0.165 0.501,0.496 v 19.409 c 2.103,-2.884 5.045,-4.326 8.827,-4.326 3.224,0 5.857,1.034 7.9,3.102 2.038,2.068 3.056,4.855 3.056,8.361 0,3.429 -1.063,6.202 -3.191,8.315 -2.127,2.113 -4.793,3.169 -7.997,3.169 -3.224,0 -5.897,-1.051 -8.02,-3.154 -2.117,-2.104 -3.176,-4.898 -3.176,-8.383 z m -26.121,-1.615 v 0 h 17.003 c -0.299,-2.304 -1.196,-4.117 -2.69,-5.439 -1.5,-1.322 -3.441,-1.983 -5.822,-1.983 -2.417,0 -4.363,0.656 -5.837,1.969 -1.47,1.311 -2.355,3.129 -2.654,5.453 z m 0.434,10.14 v 0 c -2.093,-2.008 -3.139,-4.832 -3.139,-8.472 0,-3.647 1.046,-6.468 3.139,-8.466 2.098,-1.998 4.783,-2.997 8.057,-2.997 3.273,0 5.956,0.999 8.049,2.997 2.097,1.998 3.146,4.819 3.146,8.466 v 0.104 c 0,0.331 -0.159,0.496 -0.478,0.496 h -19.312 c 0.104,2.679 0.911,4.763 2.421,6.25 1.505,1.488 3.563,2.231 6.174,2.231 2.82,0 4.975,-0.864 6.464,-2.592 0.229,-0.225 0.484,-0.277 0.763,-0.157 l 1.39,0.765 c 0.264,0.196 0.299,0.391 0.104,0.586 -1.997,2.534 -4.905,3.801 -8.721,3.801 -3.274,0 -5.959,-1.004 -8.057,-3.012 z m -32.593,1.931 -7.093,-20.732 -0.052,-0.158 0.052,-0.188 c 0.07,-0.105 0.174,-0.148 0.314,-0.127 h 1.764 c 0.334,0 0.553,0.157 0.657,0.473 l 5.912,17.375 5.882,-17.375 c 0.105,-0.316 0.317,-0.473 0.635,-0.473 h 1.787 c 0.314,0 0.523,0.157 0.628,0.473 l 5.941,17.375 5.859,-17.375 c 0.105,-0.316 0.314,-0.473 0.628,-0.473 h 1.786 c 0.21,0.015 0.314,0.127 0.314,0.338 v 0.135 l -7.092,20.732 c -0.105,0.28 -0.324,0.421 -0.658,0.421 h -1.757 c -0.333,0 -0.552,-0.141 -0.657,-0.421 l -5.86,-17.435 -5.911,17.435 c -0.105,0.28 -0.324,0.421 -0.658,0.421 h -1.786 c -0.319,0 -0.531,-0.141 -0.635,-0.421 z"
         fill="#373535"
         id="path132"
         style="fill:#ffffff;fill-opacity:1" />
    </g>
  </g>
</svg>
